# xmcd
#
# Track frame offsets: 
#        150
#        11107
#        33892
#        47750
#        72175
#        105872
#        118640
#        131667
#        155482
#        168567
#        200067
#        222675
#        236060
#        248732
#        259125
#        271850
#        286610
#        296647
#
# Disc length: 4095 seconds
#
# Revision: 0
# Processed by: cddbd v1.5.2PL0 Copyright (c) Steve Scherf et al.
# Submitted via: ExactAudioCopy v0.95b4
#
DISCID=0c0ffd12
DTITLE=Mr. Wiggles - Again
DYEAR=2004
DGENRE=Soul
TTITLE0=Fat Back
TTITLE1=Leo the Lion
TTITLE2=Wash My Back
TTITLE3=Down Home Funk
TTITLE4=Old Uncle Tom is Dead
TTITLE5=Ride Paul Revere
TTITLE6=Home Boy
TTITLE7=Mr. Wiggles' Party
TTITLE8=Money Talks
TTITLE9=Old Uncle Tom is Dead (instrumental)
TTITLE10=Monkey See, Monkey Do
TTITLE11=Double-0 (OOSoul)
TTITLE12=Wigglin'
TTITLE13=T-Model Ford
TTITLE14=Together We Stand, Divided We Must Fall
TTITLE15=Baby Bama
TTITLE16=You Upset My Mind
TTITLE17=Fat Back (Instrumental)
EXTD=
EXTT0=
EXTT1=
EXTT2=
EXTT3=
EXTT4=
EXTT5=
EXTT6=
EXTT7=
EXTT8=
EXTT9=
EXTT10=
EXTT11=
EXTT12=
EXTT13=
EXTT14=
EXTT15=
EXTT16=
EXTT17=
PLAYORDER=
